<svg width="277" height="3" viewBox="0 0 277 3" fill="none" xmlns="http://www.w3.org/2000/svg">
<path d="M0 1.33333C0 2.06971 0.596953 2.66666 1.33333 2.66666C2.06971 2.66666 2.66666 2.06971 2.66666 1.33333C2.66666 0.596953 2.06971 0 1.33333 0C0.596953 0 0 0.596953 0 1.33333ZM274 1.33333C274 2.06971 274.597 2.66666 275.333 2.66666C276.069 2.66666 276.666 2.06971 276.666 1.33333C276.666 0.596953 276.069 0 275.333 0C274.597 0 274 0.596953 274 1.33333ZM1.33333 1.58333H275.333V1.08333H1.33333V1.58333Z" fill="#FEFEFE"/>
</svg>
